<svg width="70" height="136" viewBox="0 0 70 136" fill="none" xmlns="http://www.w3.org/2000/svg">
<path d="M1.00448 0.50002C0.728344 0.497548 0.502492 0.719393 0.50002 0.995525L0.459742 5.49534C0.45727 5.77148 0.679115 5.99733 0.955246 5.9998C1.23138 6.00227 1.45723 5.78043 1.4597 5.5043L1.4955 1.50446L5.49534 1.54026C5.77148 1.54273 5.99733 1.32089 5.9998 1.04475C6.00227 0.768623 5.78043 0.54277 5.5043 0.540298L1.00448 0.50002ZM30.685 135.5C51.1314 135.5 62.4719 129.901 67.069 120.565C71.6409 111.279 69.4099 98.5307 63.3351 84.5507C51.1664 56.5467 23.3037 22.9931 1.3567 0.649625L0.643296 1.35037C22.5704 23.6736 50.3252 57.1199 62.4179 84.9493C68.4739 98.886 70.5346 111.262 66.1718 120.123C61.8342 128.932 51.0137 134.5 30.685 134.5V135.5Z" fill="black"/>
</svg>
