<svg width="27" height="17" viewBox="0 0 27 17" fill="none" xmlns="http://www.w3.org/2000/svg">
<path d="M0.591622 1.07901C0.970553 0.676756 1.48442 0.450783 2.02023 0.450783C2.55604 0.450783 3.06991 0.676756 3.44884 1.07901L13.4511 11.7001L23.4534 1.07901C23.8345 0.688156 24.3449 0.471883 24.8747 0.476772C25.4045 0.48166 25.9113 0.70732 26.286 1.10515C26.6606 1.50297 26.8731 2.04114 26.8778 2.60373C26.8824 3.16632 26.6787 3.70832 26.3106 4.113L14.8797 16.2511C14.5008 16.6534 13.9869 16.8794 13.4511 16.8794C12.9153 16.8794 12.4014 16.6534 12.0225 16.2511L0.591622 4.113C0.212807 3.71063 0 3.16496 0 2.59601C0 2.02705 0.212807 1.48138 0.591622 1.07901Z" fill="#0FA958"/>
</svg>
