<svg width="16" height="12" viewBox="0 0 16 12" fill="none" xmlns="http://www.w3.org/2000/svg">
<path d="M1.04346 5.25C0.629243 5.25 0.293457 5.58579 0.293457 6C0.293457 6.41421 0.629243 6.75 1.04346 6.75V5.25ZM15.6607 6.53033C15.9536 6.23744 15.9536 5.76256 15.6607 5.46967L10.8878 0.696699C10.5949 0.403806 10.12 0.403806 9.82711 0.696699C9.53422 0.989592 9.53422 1.46447 9.82711 1.75736L14.0698 6L9.82711 10.2426C9.53422 10.5355 9.53422 11.0104 9.82711 11.3033C10.12 11.5962 10.5949 11.5962 10.8878 11.3033L15.6607 6.53033ZM1.04346 6.75H15.1304V5.25H1.04346V6.75Z" fill="white"/>
</svg>
