<svg width="48" height="48" viewBox="0 0 48 48" fill="none" xmlns="http://www.w3.org/2000/svg">
<path d="M12 10C12.3511 10 12.696 9.9076 13 9.73207C13.3041 9.55654 13.5565 9.30407 13.7321 9.00003C13.9076 8.696 14 8.35111 14.0001 8.00003C14.0001 7.64896 13.9076 7.30406 13.7321 7.00002C13.5566 6.69598 13.3041 6.4435 13.0001 6.26796C12.696 6.09242 12.3511 6 12.0001 6C11.649 6 11.3041 6.09241 11.0001 6.26795C10.696 6.44348 10.4435 6.69596 10.268 7H10C9.20435 7 8.44129 7.31607 7.87868 7.87868C7.31607 8.44129 7 9.20435 7 10V19H9V10C9 9.73478 9.10536 9.48043 9.29289 9.29289C9.48043 9.10536 9.73478 9 10 9H10.268C10.4435 9.30403 10.696 9.5565 11 9.73204C11.3041 9.90757 11.6489 9.99999 12 10Z" fill="#F8F8F8"/>
<path fill-rule="evenodd" clip-rule="evenodd" d="M10.16 19H6.99999C6.44799 19 5.99499 19.449 6.04499 19.999C6.24696 22.2133 7.11523 24.3144 8.53535 26.0254C9.95547 27.7363 11.8607 28.9767 14 29.583V32C14 33.306 14.835 34.418 16 34.83C16.0106 36.7528 16.7846 38.5927 18.1518 39.9448C19.5189 41.2969 21.3672 42.0506 23.29 42.04C25.2128 42.0294 27.0527 41.2554 28.4048 39.8882C29.7569 38.5211 30.5106 36.6728 30.5 34.75V30.75C30.5 29.7554 30.8951 28.8016 31.5983 28.0983C32.3016 27.3951 33.2554 27 34.25 27C35.2446 27 36.1984 27.3951 36.9016 28.0983C37.6049 28.8016 38 29.7554 38 30.75V33.17C37.3325 33.4059 36.7699 33.8702 36.4116 34.4808C36.0534 35.0914 35.9225 35.809 36.0422 36.5068C36.1619 37.2046 36.5244 37.8375 37.0656 38.2939C37.6069 38.7502 38.292 39.0005 39 39.0005C39.7079 39.0005 40.3931 38.7502 40.9344 38.2939C41.4756 37.8375 41.8381 37.2046 41.9578 36.5068C42.0775 35.809 41.9466 35.0914 41.5884 34.4808C41.2301 33.8702 40.6675 33.4059 40 33.17V30.75C40 29.225 39.3942 27.7625 38.3159 26.6841C37.2375 25.6058 35.775 25 34.25 25C32.725 25 31.2625 25.6058 30.1841 26.6841C29.1058 27.7625 28.5 29.225 28.5 30.75V34.75C28.5106 36.1424 27.9677 37.482 26.9906 38.474C26.0135 39.4661 24.6824 40.0294 23.29 40.04C21.8976 40.0506 20.558 39.5077 19.566 38.5306C18.5739 37.5535 18.0106 36.2224 18 34.83C18.5851 34.623 19.0916 34.2397 19.4498 33.7329C19.8079 33.226 20.0002 32.6206 20 32V29.583C22.1392 28.9767 24.0445 27.7363 25.4646 26.0254C26.8848 24.3144 27.753 22.2133 27.955 19.999C28.005 19.449 27.552 19 27 19V10C27 9.20435 26.6839 8.44129 26.1213 7.87868C25.5587 7.31607 24.7956 7 24 7H23.732C23.5118 6.61874 23.1721 6.32077 22.7653 6.15231C22.3586 5.98384 21.9076 5.95429 21.4823 6.06824C21.0571 6.18219 20.6813 6.43326 20.4133 6.78253C20.1453 7.1318 20 7.55975 20 8C20 8.44025 20.1453 8.8682 20.4133 9.21747C20.6813 9.56674 21.0571 9.81782 21.4823 9.93176C21.9076 10.0457 22.3586 10.0162 22.7653 9.84769C23.1721 9.67923 23.5118 9.38126 23.732 9H24C24.2652 9 24.5196 9.10536 24.7071 9.29289C24.8946 9.48043 25 9.73478 25 10V19H23.84C23.288 19 22.849 19.45 22.755 19.995C22.521 21.3517 21.8152 22.5821 20.7622 23.469C19.7092 24.3559 18.3767 24.8422 17 24.8422C15.6233 24.8422 14.2908 24.3559 13.2378 23.469C12.1848 22.5821 11.479 21.3517 11.245 19.995C11.151 19.451 10.712 19 10.16 19ZM24.58 21H25.775C25.3218 22.9884 24.2068 24.7639 22.6125 26.0357C21.0183 27.3075 19.0394 28.0002 17 28.0002C14.9606 28.0002 12.9817 27.3075 11.3874 26.0357C9.7932 24.7639 8.67815 22.9884 8.22499 21H9.41999C9.86198 22.6732 10.8452 24.1532 12.2163 25.2091C13.5874 26.2651 15.2694 26.8377 17 26.8377C18.7306 26.8377 20.4126 26.2651 21.7837 25.2091C23.1548 24.1532 24.138 22.6732 24.58 21ZM39 35C39.2652 35 39.5196 35.1054 39.7071 35.2929C39.8946 35.4804 40 35.7348 40 36C40 36.2652 39.8946 36.5196 39.7071 36.7071C39.5196 36.8946 39.2652 37 39 37C38.7348 37 38.4804 36.8946 38.2929 36.7071C38.1053 36.5196 38 36.2652 38 36C38 35.7348 38.1053 35.4804 38.2929 35.2929C38.4804 35.1054 38.7348 35 39 35ZM18 30V32C18 32.2652 17.8946 32.5196 17.7071 32.7071C17.5196 32.8946 17.2652 33 17 33C16.7348 33 16.4804 32.8946 16.2929 32.7071C16.1053 32.5196 16 32.2652 16 32V30H18Z" fill="#F8F8F8"/>
</svg>
